<?xml version="1.0" encoding="UTF-8" standalone="no"?>
<svg
   xmlns:dc="http://purl.org/dc/elements/1.1/"
   xmlns:cc="http://creativecommons.org/ns#"
   xmlns:rdf="http://www.w3.org/1999/02/22-rdf-syntax-ns#"
   xmlns:svg="http://www.w3.org/2000/svg"
   xmlns="http://www.w3.org/2000/svg"
   xmlns:sodipodi="http://sodipodi.sourceforge.net/DTD/sodipodi-0.dtd"
   xmlns:inkscape="http://www.inkscape.org/namespaces/inkscape"
   width="264"
   height="88"
   viewBox="0 0 264 88"
   version="1.1"
   id="svg39"
   sodipodi:docname="default-skin.svg"
   inkscape:version="0.92.4 (unknown)">
  <metadata
     id="metadata45">
    <rdf:RDF>
      <cc:Work
         rdf:about="">
        <dc:format>image/svg+xml</dc:format>
        <dc:type
           rdf:resource="http://purl.org/dc/dcmitype/StillImage" />
      </cc:Work>
    </rdf:RDF>
  </metadata>
  <defs
     id="defs43" />
  <sodipodi:namedview
     pagecolor="#ffffff"
     bordercolor="#666666"
     borderopacity="1"
     objecttolerance="10"
     gridtolerance="10"
     guidetolerance="10"
     inkscape:pageopacity="0"
     inkscape:pageshadow="2"
     inkscape:window-width="1920"
     inkscape:window-height="1013"
     id="namedview41"
     showgrid="false"
     inkscape:zoom="1.0340909"
     inkscape:cx="132"
     inkscape:cy="44"
     inkscape:window-x="0"
     inkscape:window-y="0"
     inkscape:window-maximized="1"
     inkscape:current-layer="svg39" />
  <title
     id="title2">default-skin 2</title>
  <g
     fill="none"
     fill-rule="evenodd"
     id="g37"
     style="fill:#000000">
    <g
       id="g35"
       style="fill:#000000">
      <path
         d="M67.002 59.5v3.768c-6.307.84-9.184 5.75-10.002 9.732 2.22-2.83 5.564-5.098 10.002-5.098V71.5L73 65.585 67.002 59.5z"
         id="Shape"
         fill="#fff"
         style="fill:#000000" />
      <g
         fill="#fff"
         id="g7"
         style="fill:#000000">
        <path
           d="M13 29v-5h2v3h3v2h-5zM13 15h5v2h-3v3h-2v-5zM31 15v5h-2v-3h-3v-2h5zM31 29h-5v-2h3v-3h2v5z"
           id="path5"
           style="fill:#000000" />
      </g>
      <g
         fill="#fff"
         id="g11"
         style="fill:#000000">
        <path
           d="M62 24v5h-2v-3h-3v-2h5zM62 20h-5v-2h3v-3h2v5zM70 20v-5h2v3h3v2h-5zM70 24h5v2h-3v3h-2v-5z"
           id="path9"
           style="fill:#000000" />
      </g>
      <path
         d="M20.586 66l-5.656-5.656 1.414-1.414L22 64.586l5.656-5.656 1.414 1.414L23.414 66l5.656 5.656-1.414 1.414L22 67.414l-5.656 5.656-1.414-1.414L20.586 66z"
         fill="#fff"
         id="path13"
         style="fill:#000000" />
      <path
         d="M111.785 65.03L110 63.5l3-3.5h-10v-2h10l-3-3.5 1.785-1.468L117 59l-5.215 6.03z"
         fill="#fff"
         id="path15"
         style="fill:#000000" />
      <path
         d="M152.215 65.03L154 63.5l-3-3.5h10v-2h-10l3-3.5-1.785-1.468L147 59l5.215 6.03z"
         fill="#fff"
         id="path17"
         style="fill:#000000" />
      <g
         id="g23"
         style="fill:#000000">
        <path
           id="Rectangle-11"
           fill="#fff"
           d="M160.957 28.543l-3.25-3.25-1.413 1.414 3.25 3.25z"
           style="fill:#000000" />
        <path
           d="M152.5 27c3.038 0 5.5-2.462 5.5-5.5s-2.462-5.5-5.5-5.5-5.5 2.462-5.5 5.5 2.462 5.5 5.5 5.5z"
           id="Oval-1"
           stroke="#fff"
           stroke-width="1.5"
           style="fill:#000000" />
        <path
           fill="#fff"
           d="M150 21h5v1h-5z"
           id="path21"
           style="fill:#000000" />
      </g>
      <g
         id="g33"
         style="fill:#000000">
        <path
           d="M116.957 28.543l-1.414 1.414-3.25-3.25 1.414-1.414 3.25 3.25z"
           fill="#fff"
           id="path25"
           style="fill:#000000" />
        <path
           d="M108.5 27c3.038 0 5.5-2.462 5.5-5.5s-2.462-5.5-5.5-5.5-5.5 2.462-5.5 5.5 2.462 5.5 5.5 5.5z"
           stroke="#fff"
           stroke-width="1.5"
           id="path27"
           style="fill:#000000" />
        <path
           fill="#fff"
           d="M106 21h5v1h-5z"
           id="path29"
           style="fill:#000000" />
        <path
           fill="#fff"
           d="M109.043 19.008l-.085 5-1-.017.085-5z"
           id="path31"
           style="fill:#000000" />
      </g>
    </g>
  </g>
</svg>
